# xmcd
#
# Track frame offsets:
#	150
#	71440
#	134425
#
# Disc length: 3517 seconds
#
# Revision: 1
# Processed by: cddbd v1.5.1PL0 Copyright (c) Steve Scherf et al.
# Submitted via: CDex 1.50Beta5
#
DISCID=250dbb03
DTITLE=Various Artist - 落語教養高座　江戸大百科１３　江戸の食通
DYEAR=1993
DGENRE=Comedy
TTITLE0=三遊亭金馬（三代目）/目黒のさんま
TTITLE1=三遊亭小圓朝（三代目）/そば清
TTITLE2=金原亭馬生(十代目)/二番煎じ
EXTD=
EXTT0=
EXTT1=
EXTT2=
PLAYORDER=
